<svg width="24" height="24" viewBox="0 0 24 24" fill="none" xmlns="http://www.w3.org/2000/svg">
<path d="M10.2476 2.40283C10.1562 2.26635 10.0327 2.1545 9.88778 2.07717C9.74291 1.99983 9.58121 1.95941 9.41699 1.95947H1.99219C1.86086 1.95944 1.7308 1.98528 1.60946 2.03552C1.48812 2.08577 1.37787 2.15942 1.285 2.25229C1.19214 2.34516 1.11848 2.45541 1.06824 2.57675C1.018 2.69809 0.992153 2.82814 0.992188 2.95947V21.0415C0.992218 21.2731 1.07265 21.4975 1.21974 21.6765C1.36683 21.8554 1.57148 21.9777 1.79873 22.0226C2.02597 22.0674 2.26174 22.032 2.46578 21.9223C2.66981 21.8127 2.82947 21.6356 2.91748 21.4214L10.3423 3.33936C10.4045 3.18747 10.4285 3.02259 10.412 2.85926C10.3954 2.69593 10.339 2.53918 10.2476 2.40283ZM2.99219 15.9731V3.95947H7.92529L2.99219 15.9731ZM21.9922 1.95947H14.4746C14.3097 1.95954 14.1474 2.00037 14.0021 2.07833C13.8569 2.1563 13.7331 2.26897 13.6419 2.40633C13.5507 2.54369 13.4949 2.70146 13.4794 2.86561C13.4639 3.02976 13.4893 3.19519 13.5532 3.34717L21.0708 21.1968C21.1469 21.3782 21.275 21.5331 21.4388 21.642C21.6026 21.7509 21.795 21.809 21.9917 21.8091C22.0582 21.8089 22.1246 21.8023 22.1899 21.7896C22.4162 21.7437 22.6197 21.6211 22.7659 21.4424C22.9121 21.2637 22.992 21.04 22.9922 20.8091V2.95947C22.9922 2.82814 22.9664 2.69809 22.9161 2.57675C22.8659 2.45541 22.7922 2.34516 22.6994 2.25229C22.6065 2.15942 22.4963 2.08577 22.3749 2.03552C22.2536 1.98528 22.1235 1.95944 21.9922 1.95947ZM20.9922 15.8579L15.981 3.95947H20.9922V15.8579ZM12.9497 9.52005C12.8785 9.33157 12.752 9.16899 12.5868 9.05363C12.4216 8.93827 12.2254 8.87551 12.0239 8.87357H12.0142C11.8144 8.87355 11.6192 8.93336 11.4538 9.04528C11.2884 9.15719 11.1602 9.3161 11.0859 9.5015L8.02686 17.1323C7.96603 17.2841 7.94333 17.4484 7.96076 17.611C7.97818 17.7735 8.03519 17.9293 8.12679 18.0647C8.2184 18.2001 8.3418 18.311 8.4862 18.3877C8.6306 18.4643 8.79159 18.5044 8.95508 18.5044H11.2095L12.732 21.4946C12.8155 21.6592 12.943 21.7974 13.1003 21.894C13.2576 21.9905 13.4385 22.0416 13.6231 22.0415H16.2359C16.3977 22.0415 16.557 22.0022 16.7003 21.9271C16.8436 21.8519 16.9665 21.7431 17.0585 21.61C17.1505 21.4769 17.2088 21.3235 17.2285 21.1629C17.2482 21.0023 17.2286 20.8394 17.1714 20.688L12.9497 9.52005ZM14.2363 20.0415L12.7139 17.0513C12.6303 16.8867 12.5029 16.7485 12.3456 16.652C12.1883 16.5555 12.0073 16.5044 11.8228 16.5044H10.4331L11.9868 12.6294L14.7886 20.0415H14.2363Z" fill="white"/>
</svg>
