<svg width="22" height="22" viewBox="0 0 22 22" fill="none" xmlns="http://www.w3.org/2000/svg">
<path d="M4.49555 5.0466L4.53074 5.08178V15.2022L2.54106 13.2125C1.83353 12.505 1.63417 11.4183 2.04462 10.5075L4.49555 5.0466ZM15.2023 4.53061H5.0819L5.04672 4.49543L10.5076 2.04449C11.4184 1.63405 12.5051 1.83341 13.2126 2.54094L15.2023 4.53061ZM16.0974 16.6485H5.98097L5.76989 16.4374C5.47671 16.1403 5.31253 15.7494 5.31253 15.3312V5.86358L16.0974 16.6485ZM6.76277 17.4303H16.6486V19.7757C16.6486 19.9907 16.4727 20.1666 16.2577 20.1666H9.65152C9.54597 20.1666 9.44825 20.1236 9.37398 20.0532L7.53675 18.216L7.54457 18.2082L6.76277 17.4303ZM20.1667 9.65139V16.2576C20.1667 16.4726 19.9908 16.6485 19.7758 16.6485H17.2037L5.8637 5.31241H15.3313C15.7495 5.31241 16.1404 5.47659 16.4375 5.76976L18.2083 7.54445L18.2161 7.53663L20.0533 9.37386C20.1237 9.44813 20.1667 9.54585 20.1667 9.65139Z" fill="white"/>
</svg>
