<svg width="24" height="24" viewBox="0 0 24 24" fill="none" xmlns="http://www.w3.org/2000/svg">
<path d="M12 2C6.48867 2 2 6.48867 2 12C2 17.5113 6.48867 22 12 22C17.5113 22 22 17.5113 22 12C22 6.48867 17.5113 2 12 2ZM12 4C16.4307 4 20 7.56933 20 12C20 16.4307 16.4307 20 12 20C7.56933 20 4 16.4307 4 12C4 7.56933 7.56933 4 12 4ZM12 6C10.895 6 10 6.89214 10 7.99414C10 9.65614 12 11 12 11C12 11 14 9.65614 14 7.99414C14 6.89214 13.105 6 12 6ZM8.70117 12.0039C8.29589 12.0211 7.89125 12.1092 7.53125 12.3145C6.57725 12.8595 6.24973 14.0667 6.80273 15.0117C7.35573 15.9567 8.57725 16.2823 9.53125 15.7383C10.9713 14.9163 11.1348 12.541 11.1348 12.541C11.1348 12.541 9.91702 11.9523 8.70117 12.0039ZM15.2988 12.0039C14.083 11.9523 12.8652 12.541 12.8652 12.541C12.8652 12.541 13.0287 14.9173 14.4688 15.7383C15.4228 16.2823 16.6443 15.9577 17.1973 15.0117C17.7493 14.0667 17.4228 12.8585 16.4688 12.3145C16.1088 12.1092 15.7041 12.0211 15.2988 12.0039Z" fill="white"/>
</svg>
