<svg width="24" height="24" viewBox="0 0 24 24" fill="none" xmlns="http://www.w3.org/2000/svg">
<path fill-rule="evenodd" clip-rule="evenodd" d="M18.8567 14.6205C18.9412 14.5727 19.0114 14.5039 19.0604 14.4209C19.1093 14.338 19.1352 14.2439 19.1356 14.148L19.1456 10.9832C19.1459 10.8873 19.1718 10.7931 19.2207 10.7102C19.2697 10.6273 19.3399 10.5585 19.4244 10.5107L21.1672 9.52522C21.2517 9.47747 21.3474 9.45242 21.4448 9.45258C21.5422 9.45274 21.6379 9.47811 21.7222 9.52614C21.8065 9.57417 21.8765 9.64317 21.9251 9.72623C21.9738 9.80928 21.9994 9.90348 21.9994 9.99936V15.753C21.9994 15.8492 21.9736 15.9437 21.9247 16.027C21.8757 16.1102 21.8053 16.1793 21.7206 16.2272L15.1433 19.9459C15.0593 19.9934 14.9642 20.0184 14.8673 20.0185C14.7704 20.0186 14.6752 19.9938 14.5911 19.9465L9.42945 17.0404C9.34442 16.9926 9.27373 16.9235 9.22456 16.8401C9.17539 16.7568 9.14948 16.6621 9.14945 16.5657V13.6645C9.14945 13.6612 9.15333 13.659 9.15667 13.6607C9.15945 13.6623 9.16333 13.6607 9.16333 13.6569V13.6536C9.16333 13.6514 9.16445 13.6492 9.16667 13.6481L13.4178 11.244C13.4217 11.2419 13.42 11.2358 13.4156 11.2358L13.4124 11.2346L13.4111 11.2315L13.4194 8.38717C13.4198 8.29099 13.3944 8.19641 13.3458 8.11297C13.2972 8.02953 13.2271 7.96019 13.1426 7.91193C13.0581 7.86367 12.9622 7.83821 12.8644 7.83812C12.7667 7.83802 12.6707 7.8633 12.5861 7.91139L9.42667 9.7035C9.34235 9.75129 9.24675 9.77645 9.14945 9.77645C9.05214 9.77645 8.95655 9.75129 8.87222 9.7035L5.70278 7.90701C5.61834 7.85915 5.5226 7.83399 5.42516 7.83406C5.32772 7.83413 5.23202 7.85942 5.14765 7.9074C5.06328 7.95538 4.99321 8.02436 4.94448 8.10742C4.89574 8.19048 4.87006 8.28469 4.87 8.38061V13.5212C4.87007 13.617 4.84456 13.7112 4.79603 13.7943C4.7475 13.8773 4.67766 13.9464 4.59349 13.9945C4.50933 14.0426 4.4138 14.0681 4.31646 14.0685C4.21913 14.0688 4.12341 14.044 4.03889 13.9965L2.28 13.0066C2.19481 12.9587 2.12402 12.8895 2.07484 12.8059C2.02566 12.7223 1.99984 12.6274 2 12.5308L2.01556 3.54569C2.01577 3.4499 2.04154 3.35584 2.09028 3.27294C2.13902 3.19003 2.20903 3.12118 2.2933 3.07329C2.37757 3.02539 2.47314 3.00011 2.57045 3C2.66776 2.99989 2.76339 3.02494 2.84778 3.07264L8.87278 6.47912C8.95697 6.52672 9.05236 6.55176 9.14945 6.55176C9.24653 6.55176 9.34192 6.52672 9.42611 6.47912L15.4494 3.07264C15.534 3.02487 15.6297 2.99982 15.7272 3C15.8246 3.00019 15.9203 3.0256 16.0046 3.0737C16.089 3.12179 16.1589 3.19087 16.2076 3.274C16.2562 3.35714 16.2817 3.4514 16.2817 3.54733V12.5347C16.2817 12.6308 16.256 12.7253 16.2071 12.8085C16.1583 12.8917 16.088 12.9608 16.0033 13.0088L12.8489 14.7971C12.7642 14.8452 12.6938 14.9144 12.645 14.9978C12.5962 15.0812 12.5706 15.1759 12.5708 15.2721C12.571 15.3684 12.5971 15.4629 12.6463 15.5461C12.6955 15.6293 12.7662 15.6982 12.8511 15.7459L14.5911 16.721C14.6752 16.7681 14.7703 16.7928 14.8671 16.7926C14.9639 16.7924 15.0589 16.7674 15.1428 16.7199L18.8567 14.6205ZM19.2217 6.55842C19.2217 6.65513 19.2479 6.7501 19.2974 6.83363C19.3469 6.91716 19.4181 6.98626 19.5036 7.03391C19.5891 7.08155 19.6859 7.10602 19.7841 7.10482C19.8823 7.10362 19.9785 7.0768 20.0628 7.02709L21.7294 6.04272C21.8117 5.99419 21.8798 5.92551 21.9271 5.84338C21.9745 5.76125 21.9994 5.66846 21.9994 5.57404V3.56811C21.9993 3.47144 21.9731 3.37655 21.9235 3.29309C21.8739 3.20964 21.8028 3.14061 21.7173 3.09303C21.6318 3.04546 21.5351 3.02103 21.4369 3.02225C21.3387 3.02348 21.2426 3.0503 21.1583 3.09998L19.4917 4.08436C19.4094 4.13289 19.3413 4.20156 19.294 4.28369C19.2467 4.36582 19.2217 4.45861 19.2217 4.55303V6.55842Z" fill="white"/>
</svg>
