<svg xmlns="http://www.w3.org/2000/svg" width="28" height="29" fill="none"><path fill="#fff" fill-opacity=".85" d="M10.099 26.953h8.442q1.402 0 2.25-.815.85-.814.85-2.148V5.797q0-1.334-.85-2.148-.848-.815-2.25-.815H10.1q-1.39 0-2.245.815Q7 4.462 7 5.796V23.99q0 1.332.854 2.147.855.815 2.245.815m.24-1.834q-.731 0-1.117-.37-.388-.372-.388-1.055V6.092q0-.684.388-1.054.387-.37 1.116-.37h1.459q.273 0 .273.262v.262a.8.8 0 0 0 .216.575.76.76 0 0 0 .57.222h2.94q.364 0 .575-.222t.21-.575V4.93q0-.262.274-.262h1.459q.717 0 1.105.37.387.37.387 1.054v17.602q0 .684-.387 1.054-.388.37-1.105.37zm1.572-.832h4.842a.5.5 0 0 0 .376-.148.52.52 0 0 0 .148-.388q0-.24-.148-.382a.52.52 0 0 0-.376-.142H11.91a.54.54 0 0 0-.382.142.5.5 0 0 0-.154.382.513.513 0 0 0 .536.536"/></svg>