<svg width="24" height="24" viewBox="0 0 24 24" fill="none" xmlns="http://www.w3.org/2000/svg">
<path d="M19.266 4.64477C17.4093 1.98475 13.7317 1.19924 11.0895 2.89523L6.43004 5.85874C5.16251 6.6621 4.28774 7.96534 4.01995 9.42924C3.80572 10.6611 3.98425 11.9286 4.57338 13.0354C4.18063 13.6424 3.89499 14.3208 3.77002 15.0349C3.50223 16.5524 3.85928 18.1056 4.73405 19.3552C6.59071 22.0153 10.2505 22.8008 12.9105 21.1048L17.57 18.1413C18.8375 17.3379 19.7123 16.0347 19.9801 14.5708C20.1943 13.3389 20.0158 12.0714 19.4267 10.9646C19.8194 10.3576 20.1051 9.67918 20.23 8.96508C20.4978 7.44761 20.1408 5.89445 19.266 4.64477ZM17.927 8.46521C17.8913 8.60803 17.8556 8.75085 17.8199 8.89367L17.7307 9.16145L17.4986 8.98293C16.9452 8.57232 16.3382 8.26883 15.6776 8.07245L15.4991 8.01889L15.517 7.84037C15.5348 7.59043 15.4634 7.35835 15.3206 7.14412C15.0528 6.75137 14.5708 6.59069 14.1245 6.69781C14.0174 6.73351 13.9281 6.76922 13.8388 6.82278L9.17933 9.80414C8.94724 9.94696 8.78657 10.179 8.75087 10.4468C8.69731 10.7146 8.76872 11.0003 8.92939 11.2323C9.19718 11.6251 9.6792 11.7858 10.1255 11.6787C10.2326 11.643 10.3219 11.6072 10.4111 11.5537L12.1964 10.429C12.482 10.2505 12.8034 10.1076 13.1426 10.0184C14.6422 9.62562 16.2311 10.2148 17.1058 11.4823C17.6414 12.2321 17.8556 13.1604 17.695 14.0709C17.5343 14.9635 17.0166 15.749 16.2489 16.231L11.5716 19.1946C11.2859 19.3731 10.9646 19.5159 10.6254 19.6052C9.12577 19.9979 7.5369 19.4088 6.66212 18.1413C6.12655 17.3915 5.91232 16.4631 6.07299 15.5526C6.1087 15.4098 6.1444 15.267 6.18011 15.1242L6.26937 14.8564L6.50145 15.0349C7.05488 15.4455 7.66186 15.749 8.32241 15.9454L8.50093 15.999L8.48308 16.1775C8.46523 16.4274 8.53664 16.6774 8.67946 16.8737C8.94724 17.2665 9.42926 17.4272 9.87557 17.32C9.98269 17.2843 10.072 17.2486 10.1612 17.1951L14.8207 14.2316C15.0528 14.0887 15.2135 13.8567 15.267 13.5889C15.3206 13.3211 15.2492 13.0354 15.0885 12.8034C14.8207 12.4106 14.3387 12.2499 13.8924 12.357C13.7853 12.3928 13.696 12.4285 13.6067 12.482L11.8215 13.6067C11.5359 13.7852 11.2145 13.9281 10.8753 14.0173C9.3757 14.3922 7.78683 13.8031 6.89421 12.5177C6.35863 11.7679 6.1444 10.8396 6.30507 9.92911C6.46575 9.03649 6.98347 8.25098 7.75113 7.76896L12.4285 4.80544C12.7141 4.62692 13.0355 4.4841 13.3747 4.39484C14.8743 4.00208 16.4631 4.59121 17.3379 5.85874C17.8735 6.6264 18.0877 7.55473 17.927 8.46521Z" fill="white"/>
</svg>
