<svg width="24" height="28" viewBox="0 0 24 28" fill="none" xmlns="http://www.w3.org/2000/svg">
<path d="M21.2905 7.62254C21.243 7.53307 21.1559 7.46306 21.0569 7.43194L20.2411 7.17911C20.0471 7.12076 19.8372 7.23356 19.758 7.41638C19.758 7.41638 19.7422 7.42027 19.7026 7.42027C19.5679 7.42027 19.3422 7.16355 19.2392 6.98073C19.2076 6.92238 19.16 6.87571 19.1046 6.83681C18.6175 6.5373 17.3068 5.83325 15.6238 5.83325C13.521 5.83325 12.1271 6.42449 12.0677 6.44783C11.8974 6.52174 11.7984 6.70456 11.838 6.88738C11.8776 7.0663 12.04 7.19467 12.2261 7.19467C13.8972 7.19467 14.3843 7.45917 14.9387 7.8637C15.0416 7.93761 15.1684 8.05819 15.2792 8.21767L2.66663 10.1275L4.65059 23.0065L11.0579 22.003C11.0816 22.0963 11.1133 22.1936 11.1569 22.283C11.3232 22.6292 11.636 22.8937 12.0122 23.0104L12.8042 23.2477C12.9943 23.306 13.1804 23.3333 13.3586 23.3333C13.5844 23.3333 13.7942 23.2866 13.9764 23.1854C14.2615 23.0337 14.4635 22.7653 14.5546 22.4269C14.5625 22.4114 14.6813 22.0146 14.8634 21.4078L20.5975 20.5093L18.8116 9.4196C18.8393 9.40794 18.867 9.39627 18.8908 9.39627H18.8947C19.0096 9.39627 19.0452 9.41571 19.0452 9.41571C19.065 9.43127 19.0808 9.44294 19.0927 9.45461C19.0888 9.62576 19.1996 9.78135 19.3699 9.83581L20.1857 10.0925C20.3916 10.1548 20.6173 10.042 20.6846 9.8397L21.3143 7.92205C21.346 7.82481 21.338 7.71589 21.2905 7.62254ZM11.0064 11.3022L11.343 11.0261C11.5331 10.8705 11.8103 10.8938 11.9726 11.0727L13.5764 12.8815L14.5268 13.9123L13.9328 15.2114L10.9549 11.8974C10.7965 11.7223 10.8203 11.4539 11.0064 11.3022ZM9.71543 12.4886C9.81047 12.2708 10.0679 12.1658 10.2936 12.2552L10.7094 12.4147C10.9351 12.5042 11.042 12.7492 10.951 12.9671L10.7094 13.5389L9.47783 13.0565L9.71543 12.4886ZM6.12767 15.3515L8.14331 15.0442L7.55723 16.4212L6.32963 16.6079L6.12767 15.3515ZM8.57891 18.4477L7.20479 20.0192L7.39883 17.9771L7.41071 17.9032L7.48199 17.9265L8.62643 18.3777C8.61455 18.401 8.60267 18.4283 8.57891 18.4477ZM7.57307 17.5064L9.30755 13.4455L10.5391 13.9317L8.80067 17.9848L7.57307 17.5064ZM10.1154 16.0361L10.7094 14.6591L12.5468 14.3829L13.5606 15.5187L10.1154 16.0361ZM16.8395 17.9848C16.8395 17.9848 16.6771 17.5025 15.8257 17.2458C15.7861 17.2341 15.7465 17.2225 15.7109 17.2069L16.1861 15.7171C16.4791 15.8494 17.0573 16.2072 17.0573 17.0085C17.0573 17.6931 16.8395 17.9848 16.8395 17.9848ZM16.3841 15.0714L16.784 13.7217L16.8078 13.7178L17.0216 14.9742L16.3841 15.0714ZM20.051 9.2329L19.857 9.17066C19.7818 8.98784 19.6273 8.87115 19.5204 8.79335C19.366 8.68055 19.168 8.62221 18.9106 8.61832H18.8908C17.7582 8.61832 17.2157 10.5437 16.3168 13.7178C16.1742 14.2079 16.0316 14.7252 15.8732 15.2542C15.2911 17.2497 13.8101 22.1547 13.7942 22.213C13.7546 22.3569 13.6873 22.4542 13.5962 22.5047C13.4656 22.5748 13.2676 22.5748 13.0339 22.5047L12.2459 22.2675C12.0796 22.2169 11.9449 22.1002 11.8697 21.9446C11.7944 21.7929 11.7905 21.6179 11.8499 21.4662C11.8499 21.4662 13.6794 17.0319 14.4358 15.192C15.2476 13.2004 16.2019 10.7421 16.3682 9.41571C16.4831 8.47828 15.9722 7.64588 15.4099 7.24134C15.0892 7.00407 14.7803 6.82125 14.3882 6.68511C14.7605 6.64232 15.1763 6.6112 15.6238 6.6112C17.0414 6.6112 18.1819 7.19856 18.5977 7.4475C18.7442 7.677 19.1402 8.19822 19.7026 8.19822C19.8808 8.19822 20.0946 8.15932 20.2688 8.00373L20.4391 8.0543L20.051 9.2329Z" fill="white"/>
</svg>
