<svg width="20" height="20" viewBox="0 0 20 20" fill="none" xmlns="http://www.w3.org/2000/svg">
<path d="M10.7123 11.2108C10.7478 10.5747 11.0573 10.0143 11.5242 9.61704C11.9821 9.22684 12.5985 8.98834 13.271 8.98834C13.9429 8.98834 14.5592 9.22684 15.0175 9.61704C15.4841 10.0143 15.7936 10.5747 15.8294 11.2102C15.8648 11.8638 15.6038 12.4709 15.1458 12.921C14.6789 13.3789 14.0147 13.6661 13.271 13.6661C12.5273 13.6661 11.8618 13.3789 11.3952 12.921C10.9369 12.4709 10.6766 11.8638 10.7123 11.2108Z" fill="white"/>
<path d="M6.63778 12.4961C6.64213 12.7451 6.72101 13.2288 6.83933 13.6066C7.08802 14.4061 7.50984 15.1459 8.09678 15.7978C8.69911 16.4679 9.44081 17.0061 10.2975 17.3882C11.198 17.7895 12.1737 17.994 13.1871 17.9924C14.1989 17.991 15.1746 17.7825 16.075 17.3781C16.9317 16.9923 17.6728 16.4517 18.2741 15.7813C18.8607 15.1267 19.2818 14.3856 19.5312 13.586C19.6565 13.182 19.7358 12.772 19.7675 12.3606C19.7986 11.9552 19.7856 11.5492 19.7284 11.1435C19.6168 10.353 19.345 9.61129 18.9265 8.93515C18.5438 8.31385 18.0505 7.76991 17.4639 7.31209L17.4652 7.31108L11.5453 2.73656C11.5399 2.73252 11.5356 2.72815 11.5299 2.72445C11.1415 2.4244 10.4884 2.42541 10.0612 2.72614C9.62933 3.03023 9.57986 3.53312 9.96425 3.85033L9.96258 3.85202L12.4317 5.87269L4.90602 5.88077H4.896C4.27396 5.88144 3.67598 6.29216 3.55766 6.81121C3.43599 7.34001 3.85848 7.77865 4.50526 7.78101L4.50426 7.78337L8.31873 7.77597L1.51203 13.034C1.50334 13.0404 1.49398 13.0471 1.48596 13.0535C0.843864 13.5484 0.636299 14.3712 1.04074 14.8919C1.4512 15.4214 2.32393 15.4224 2.97272 14.8949L6.68758 11.8351C6.68758 11.8351 6.63344 12.2482 6.63778 12.4961ZM16.1837 13.8794C15.4182 14.6641 14.3466 15.1092 13.1871 15.1116C12.0259 15.1136 10.9543 14.6726 10.1889 13.8891C9.81484 13.5073 9.54008 13.068 9.37062 12.6001C9.2045 12.1402 9.13999 11.6521 9.18277 11.1597C9.22322 10.6783 9.36561 10.2191 9.5929 9.8037C9.81618 9.39533 10.1237 9.02632 10.5034 8.71415C11.2474 8.10395 12.1947 7.77361 13.1854 7.77226C14.1772 7.77092 15.1238 8.09822 15.8685 8.70641C16.2475 9.01723 16.5547 9.3849 16.778 9.7926C17.0063 10.2077 17.1476 10.6652 17.1898 11.1479C17.2319 11.6397 17.1674 12.1271 17.0012 12.5873C16.8314 13.0566 16.5577 13.4959 16.1837 13.8794Z" fill="white"/>
</svg>
