<svg width="24" height="24" viewBox="0 0 24 24" fill="none" xmlns="http://www.w3.org/2000/svg">
<path fill-rule="evenodd" clip-rule="evenodd" d="M8.16003 0H15.8399C18.2247 0 20.16 1.93525 20.16 4.32003C20.16 5.99123 19.2096 7.44161 17.8201 8.15996C19.2096 8.87835 20.16 10.3288 20.16 12C20.16 14.3848 18.2247 16.32 15.8399 16.32C14.4834 16.32 13.2723 15.6938 12.4801 14.7149V19.68C12.4801 22.0648 10.5448 24 8.16003 24C5.77524 24 3.83997 22.0648 3.83997 19.68C3.83997 18.0088 4.79035 16.5583 6.17982 15.84C4.79035 15.1216 3.83997 13.6712 3.83997 12C3.83997 10.3288 4.79034 8.87835 6.1798 8.15996C4.79035 7.44161 3.83997 5.99123 3.83997 4.32003C3.83997 1.93525 5.77524 0 8.16003 0ZM4.79997 4.32003C4.79997 2.46545 6.30542 0.96 8.16003 0.96H11.5198V7.67994H8.16003L8.14961 7.67995C6.29977 7.67433 4.79997 6.17112 4.79997 4.32003ZM11.5201 11.9543C11.5199 11.9695 11.5198 11.9847 11.5198 12C11.5198 12.0152 11.5199 12.0304 11.5201 12.0457V15.3599H8.16C6.30542 15.36 4.79997 13.8546 4.79997 12C4.79997 10.1488 6.29984 8.64553 8.1497 8.63996L8.16003 8.63997H11.5198L11.5201 11.9543ZM12.4801 12.0402V11.9597C12.5016 10.1282 13.9913 8.64734 15.8261 8.63997H15.8399C15.8434 8.63997 15.8468 8.63996 15.8502 8.63996C17.7001 8.64553 19.2 10.1488 19.2 12C19.2 13.8546 17.6945 15.36 15.8399 15.36C13.9987 15.36 12.5017 13.8763 12.4801 12.0402ZM13.1252 8.63997C12.8882 8.83174 12.6719 9.04806 12.4801 9.28506V8.63997H13.1252ZM15.8503 7.67995C15.8469 7.67994 15.8434 7.67994 15.8399 7.67994C15.8347 7.67994 15.8294 7.67995 15.8242 7.67997H12.4801V0.96H15.8399C17.6945 0.96 19.2 2.46545 19.2 4.32003C19.2 6.17112 17.7002 7.67433 15.8503 7.67995ZM8.16003 16.3199C6.30542 16.3199 4.79997 17.8254 4.79997 19.68C4.79997 21.5345 6.30542 23.04 8.16003 23.04C10.0146 23.04 11.5201 21.5345 11.5201 19.68V16.3199H8.16003Z" fill="white"/>
</svg>
