<svg width="20" height="20" viewBox="0 0 20 20" fill="none" xmlns="http://www.w3.org/2000/svg">
<path d="M14.4284 1.67063C14.325 1.67794 14.2217 1.69538 14.1191 1.72434L2.81378 4.90468C2.40211 5.02051 2.06496 5.2875 1.86163 5.655C1.66246 6.015 1.61495 6.42512 1.72328 6.79595L1.77699 7.00429L3.23695 16.8643C3.37529 17.716 4.10921 18.334 4.98337 18.334C5.07587 18.334 5.16916 18.327 5.26332 18.3129L16.8405 16.4981C17.3121 16.4239 17.7259 16.1726 18.0042 15.7885C18.2767 15.4126 18.3852 14.9536 18.3118 14.4994L16.8535 5.32948C16.7818 4.87448 16.3531 4.56442 15.8981 4.63775L6.95929 6.07655L15.8248 3.44309C16.0465 3.37726 16.1723 3.14472 16.1048 2.92388L16.0657 2.78391C15.8594 2.07953 15.152 1.61943 14.4284 1.67063ZM15.3382 6.41509L16.6647 14.7631L16.5817 14.851L4.98337 16.6674C4.93004 16.6674 4.88909 16.6388 4.88409 16.6088L3.83591 9.51405L5.12172 8.0606L7.65916 7.65207L6.74281 8.69211C6.61781 8.83378 6.7432 9.06724 6.93487 9.03391L8.60968 8.76698C8.80134 8.73365 8.96788 8.64192 9.10121 8.49192L10.2015 7.24192L12.7438 6.83339L11.8258 7.87505C11.7008 8.01672 11.8262 8.25019 12.0179 8.21685L13.7008 7.94992C13.8925 7.91659 14.059 7.82649 14.1924 7.67649L15.3024 6.4216L15.3382 6.41509ZM13.2614 9.28293L6.47751 10.3751C6.02751 10.4476 5.71912 10.8682 5.78578 11.3191L6.17478 13.9444C6.24228 14.4027 6.67106 14.7176 7.12856 14.6459L13.945 13.5798C14.4008 13.5081 14.7108 13.0794 14.6383 12.6244L14.2168 9.97466C14.1443 9.51966 13.7164 9.2096 13.2614 9.28293Z" fill="white"/>
</svg>
