<svg xmlns="http://www.w3.org/2000/svg" width="20" height="21" fill="none"><path fill="#fff" fill-opacity=".9" fill-rule="evenodd" d="M0 10.2C0 4.627 4.368.5 10 .5c5.633 0 10 4.13 10 9.702 0 5.573-4.367 9.7-10 9.7-1.012 0-1.982-.135-2.895-.385a.8.8 0 0 0-.535.04l-1.985.875a.8.8 0 0 1-1.122-.707l-.055-1.78a.8.8 0 0 0-.268-.57C1.195 15.635 0 13.115 0 10.2m6.933-1.823-2.938 4.66c-.282.448.268.95.688.63l3.155-2.395a.6.6 0 0 1 .722-.002l2.338 1.752a1.5 1.5 0 0 0 2.17-.4l2.94-4.657c.28-.448-.27-.953-.69-.633l-3.155 2.395a.6.6 0 0 1-.723.003L9.103 7.977a1.5 1.5 0 0 0-2.17.4" clip-rule="evenodd"/></svg>