<svg width="22" height="22" viewBox="0 0 22 22" fill="none" xmlns="http://www.w3.org/2000/svg">
<path d="M2.75004 9.62499L19.25 9.62499C19.4931 9.62499 19.7263 9.52841 19.8982 9.3565C20.0701 9.18459 20.1667 8.95144 20.1667 8.70832C20.1667 8.46521 20.0701 8.23205 19.8982 8.06014C19.7263 7.88823 19.4931 7.79166 19.25 7.79166L2.75004 7.79166C2.50692 7.79166 2.27377 7.88823 2.10186 8.06014C1.92995 8.23205 1.83337 8.46521 1.83337 8.70832C1.83337 8.95144 1.92995 9.18459 2.10186 9.3565C2.27377 9.52841 2.50692 9.62499 2.75004 9.62499ZM19.25 12.375L4.58337 12.375C4.34026 12.375 4.1071 12.4716 3.93519 12.6435C3.76328 12.8154 3.66671 13.0485 3.66671 13.2917C3.66671 13.5348 3.76328 13.7679 3.93519 13.9398C4.1071 14.1117 4.34026 14.2083 4.58337 14.2083L19.25 14.2083C19.4931 14.2083 19.7263 14.1117 19.8982 13.9398C20.0701 13.7679 20.1667 13.5348 20.1667 13.2917C20.1667 13.0485 20.0701 12.8154 19.8982 12.6435C19.7263 12.4716 19.4931 12.375 19.25 12.375Z" fill="#AEAEAE"/>
</svg>
